<svg width="25" height="25" viewBox="0 0 25 25" fill="none" xmlns="http://www.w3.org/2000/svg">
<path d="M5.10412 10.3613C5.2422 10.3613 5.37462 10.3065 5.47226 10.2089C5.56989 10.1113 5.62474 9.97897 5.62474 9.84095V6.41681L9.42009 10.2104C9.46849 10.2592 9.52607 10.2979 9.58951 10.3243C9.65296 10.3508 9.721 10.3644 9.78973 10.3644C9.85846 10.3644 9.92651 10.3508 9.98995 10.3243C10.0534 10.2979 10.111 10.2592 10.1594 10.2104C10.2563 10.1129 10.3108 9.98103 10.3108 9.84355C10.3108 9.70608 10.2563 9.57418 10.1594 9.47668L6.35882 5.67786H9.78973C9.92781 5.67786 10.0602 5.62303 10.1579 5.52544C10.2555 5.42785 10.3104 5.29549 10.3104 5.15747C10.3104 5.01946 10.2555 4.88709 10.1579 4.7895C10.0602 4.69191 9.92781 4.63708 9.78973 4.63708H5.62474C5.34859 4.63708 5.08374 4.74674 4.88847 4.94192C4.6932 5.1371 4.5835 5.40183 4.5835 5.67786V9.84095C4.5835 9.97897 4.63835 10.1113 4.73598 10.2089C4.83362 10.3065 4.96604 10.3613 5.10412 10.3613Z" fill="white"/>
<path d="M5.62474 19.9098H9.78973C9.92781 19.9098 10.0602 19.8549 10.1579 19.7573C10.2555 19.6597 10.3104 19.5272 10.3104 19.3891C10.3104 19.251 10.2555 19.1186 10.1579 19.021C10.0602 18.9233 9.92781 18.8685 9.78973 18.8685H6.35882L10.1594 15.0729C10.2563 14.9753 10.3108 14.8433 10.3108 14.7058C10.3108 14.5682 10.2563 14.4363 10.1594 14.3387C10.111 14.2899 10.0534 14.2512 9.98995 14.2248C9.92651 14.1983 9.85846 14.1847 9.78973 14.1847C9.721 14.1847 9.65296 14.1983 9.58951 14.2248C9.52607 14.2512 9.46849 14.2899 9.42009 14.3387L5.62474 18.1343V14.7032C5.62474 14.5651 5.56989 14.4327 5.47226 14.335C5.37462 14.2374 5.2422 14.1825 5.10412 14.1825C4.96604 14.1825 4.83362 14.2374 4.73598 14.335C4.63835 14.4327 4.5835 14.5651 4.5835 14.7032V18.8685C4.5835 19.1447 4.6932 19.4095 4.88847 19.6048C5.08374 19.8001 5.34859 19.9098 5.62474 19.9098Z" fill="white"/>
<path d="M18.8149 4.63708H14.6499C14.5119 4.63708 14.3794 4.69191 14.2818 4.7895C14.1842 4.88709 14.1293 5.01946 14.1293 5.15747C14.1293 5.29549 14.1842 5.42785 14.2818 5.52544C14.3794 5.62303 14.5119 5.67786 14.6499 5.67786H18.0809L14.2803 9.47668C14.1833 9.57418 14.1289 9.70608 14.1289 9.84355C14.1289 9.98103 14.1833 10.1129 14.2803 10.2104C14.3287 10.2592 14.3863 10.2979 14.4497 10.3243C14.5132 10.3508 14.5812 10.3644 14.6499 10.3644C14.7187 10.3644 14.7867 10.3508 14.8502 10.3243C14.9136 10.2979 14.9712 10.2592 15.0196 10.2104L18.8149 6.41681V9.84095C18.8149 9.97897 18.8698 10.1113 18.9674 10.2089C19.0651 10.3065 19.1975 10.3613 19.3356 10.3613C19.4736 10.3613 19.6061 10.3065 19.7037 10.2089C19.8013 10.1113 19.8562 9.97897 19.8562 9.84095V5.67786C19.8562 5.40183 19.7465 5.1371 19.5512 4.94192C19.3559 4.74674 19.0911 4.63708 18.8149 4.63708Z" fill="white"/>
<path d="M19.3356 14.1825C19.1975 14.1825 19.0651 14.2374 18.9674 14.335C18.8698 14.4327 18.8149 14.5651 18.8149 14.7032V18.1343L15.0196 14.3387C14.9712 14.2899 14.9136 14.2512 14.8502 14.2248C14.7867 14.1983 14.7187 14.1847 14.6499 14.1847C14.5812 14.1847 14.5132 14.1983 14.4497 14.2248C14.3863 14.2512 14.3287 14.2899 14.2803 14.3387C14.1833 14.4363 14.1289 14.5682 14.1289 14.7058C14.1289 14.8433 14.1833 14.9753 14.2803 15.0729L18.0809 18.8685H14.6499C14.5119 18.8685 14.3794 18.9233 14.2818 19.021C14.1842 19.1186 14.1293 19.251 14.1293 19.3891C14.1293 19.5272 14.1842 19.6597 14.2818 19.7573C14.3794 19.8549 14.5119 19.9098 14.6499 19.9098H18.8149C19.0911 19.9098 19.3559 19.8001 19.5512 19.6048C19.7465 19.4095 19.8562 19.1447 19.8562 18.8685V14.7032C19.8562 14.5651 19.8013 14.4327 19.7037 14.335C19.6061 14.2374 19.4736 14.1825 19.3356 14.1825Z" fill="white"/>
</svg>
