<svg width="25" height="25" viewBox="0 0 25 25" fill="none" xmlns="http://www.w3.org/2000/svg">
<path d="M20.5678 10.3762C20.7773 10.3762 20.9472 10.2063 20.9472 9.99672C20.9472 9.78716 20.7773 9.61726 20.5678 9.61726H19.4294V5.82282H20.5678C20.7773 5.82282 20.9472 5.65292 20.9472 5.44336C20.9472 5.2338 20.7773 5.06394 20.5678 5.06394H19.4294V3.9256C19.4294 3.71604 19.2595 3.54614 19.05 3.54614C18.8404 3.54614 18.6705 3.71604 18.6705 3.9256V5.06394H14.8761V3.9256C14.8761 3.71604 14.7062 3.54614 14.4966 3.54614C14.287 3.54614 14.1172 3.71604 14.1172 3.9256V5.06394H10.3227V3.9256C10.3227 3.71604 10.1528 3.54614 9.94325 3.54614C9.73369 3.54614 9.56379 3.71604 9.56379 3.9256V5.06394H5.76935V3.9256C5.76935 3.71604 5.59946 3.54614 5.3899 3.54614C5.18033 3.54614 5.01047 3.71604 5.01047 3.9256V5.06394H3.87213C3.66257 5.06394 3.49268 5.2338 3.49268 5.44336C3.49268 5.65292 3.66257 5.82282 3.87213 5.82282H5.01047V9.6173H3.87213C3.66257 9.6173 3.49268 9.78716 3.49268 9.99672C3.49268 10.2063 3.66257 10.3762 3.87213 10.3762H5.01047V14.1707H3.87213C3.66257 14.1707 3.49268 14.3405 3.49268 14.5501C3.49268 14.7596 3.66257 14.9295 3.87213 14.9295H5.01047V18.724H3.87213C3.66257 18.724 3.49268 18.8939 3.49268 19.1034C3.49268 19.313 3.66257 19.4829 3.87213 19.4829H5.01047V20.6212C5.01047 20.8308 5.18037 21.0007 5.38993 21.0007C5.59949 21.0007 5.76935 20.8308 5.76935 20.6212V19.4829H9.56383V20.6212C9.56383 20.8308 9.73373 21.0007 9.94329 21.0007C10.1528 21.0007 10.3227 20.8308 10.3227 20.6212V19.4829H14.1172V20.6212C14.1172 20.8308 14.2871 21.0007 14.4967 21.0007C14.7062 21.0007 14.8761 20.8308 14.8761 20.6212V19.4829H18.6705V20.6212C18.6705 20.8308 18.8404 21.0007 19.05 21.0007C19.2596 21.0007 19.4294 20.8308 19.4294 20.6212V19.4829H20.5678C20.7773 19.4829 20.9472 19.313 20.9472 19.1034C20.9472 18.8939 20.7773 18.724 20.5678 18.724H19.4294V14.9295H20.5678C20.7773 14.9295 20.9472 14.7596 20.9472 14.5501C20.9472 14.3405 20.7773 14.1706 20.5678 14.1706H19.4294V10.3762H20.5678ZM18.6705 5.82282V9.6173H14.8761V5.82282H18.6705ZM14.1172 5.82282V9.6173H10.3227V5.82282H14.1172ZM14.1172 10.3762V14.1707H10.3227V10.3762H14.1172ZM5.76935 5.82282H9.56383V9.6173H5.76935V5.82282ZM5.76935 10.3762H9.56383V14.1707H5.76935V10.3762ZM5.76935 18.724V14.9295H9.56383V18.724H5.76935ZM10.3227 18.724V14.9295H14.1172V18.724H10.3227ZM18.6705 18.724H14.8761V14.9295H18.6705V18.724ZM18.6705 14.1707H14.8761V10.3762H18.6705V14.1707Z" fill="#65D9FF"/>
<path d="M5.38874 21.0007C5.17917 21.0007 5.00928 20.8308 5.00928 20.6212V3.9256C5.00931 3.71604 5.17917 3.54614 5.38874 3.54614C5.5983 3.54614 5.76819 3.71604 5.76819 3.9256V20.6212C5.76819 20.8308 5.5983 21.0007 5.38874 21.0007Z" fill="#65D9FF"/>
<path d="M9.9444 21.0007C9.73484 21.0007 9.56494 20.8308 9.56494 20.6212V3.9256C9.56498 3.71604 9.73484 3.54614 9.9444 3.54614C10.154 3.54614 10.3239 3.71604 10.3239 3.9256V20.6212C10.3239 20.8308 10.154 21.0007 9.9444 21.0007Z" fill="#65D9FF"/>
<path d="M14.4957 21.0007C14.2861 21.0007 14.1162 20.8308 14.1162 20.6212V3.9256C14.1162 3.71604 14.2861 3.54614 14.4957 3.54614C14.7052 3.54614 14.8751 3.71604 14.8751 3.9256V20.6212C14.8751 20.8308 14.7052 21.0007 14.4957 21.0007Z" fill="#65D9FF"/>
<path d="M19.0489 21.0007C18.8393 21.0007 18.6694 20.8308 18.6694 20.6212V3.9256C18.6695 3.71604 18.8393 3.54614 19.0489 3.54614C19.2585 3.54614 19.4284 3.71604 19.4284 3.9256V20.6212C19.4284 20.8308 19.2585 21.0007 19.0489 21.0007Z" fill="#65D9FF"/>
<path d="M20.5678 19.4829H3.87213C3.66257 19.4829 3.49268 19.313 3.49268 19.1035C3.49268 18.8939 3.66257 18.724 3.87213 18.724H20.5678C20.7773 18.724 20.9472 18.8939 20.9472 19.1035C20.9472 19.313 20.7773 19.4829 20.5678 19.4829Z" fill="#65D9FF"/>
<path d="M20.5678 14.9294H3.87213C3.66257 14.9294 3.49268 14.7596 3.49268 14.55C3.49268 14.3404 3.66257 14.1705 3.87213 14.1705H20.5678C20.7773 14.1705 20.9472 14.3404 20.9472 14.55C20.9472 14.7596 20.7773 14.9294 20.5678 14.9294Z" fill="#65D9FF"/>
<path d="M20.5678 10.3763H3.87213C3.66257 10.3763 3.49268 10.2065 3.49268 9.99689C3.49268 9.78733 3.66257 9.61743 3.87213 9.61743H20.5678C20.7773 9.61743 20.9472 9.78733 20.9472 9.99689C20.9472 10.2065 20.7773 10.3763 20.5678 10.3763Z" fill="#65D9FF"/>
<path d="M20.5678 5.82288H3.87213C3.66257 5.82288 3.49268 5.65298 3.49268 5.44342C3.49268 5.23386 3.66257 5.06396 3.87213 5.06396H20.5678C20.7773 5.06396 20.9472 5.23386 20.9472 5.44342C20.9472 5.65298 20.7773 5.82288 20.5678 5.82288Z" fill="#65D9FF"/>
</svg>
