<svg width="24" height="25" viewBox="0 0 24 25" fill="none" xmlns="http://www.w3.org/2000/svg">
<path d="M7.8 2.67676H16.2C19.4 2.67676 22 5.27676 22 8.47676V16.8768C22 18.415 21.3889 19.8903 20.3012 20.978C19.2135 22.0657 17.7383 22.6768 16.2 22.6768H7.8C4.6 22.6768 2 20.0768 2 16.8768V8.47676C2 6.9385 2.61107 5.46325 3.69878 4.37554C4.78649 3.28783 6.26174 2.67676 7.8 2.67676ZM7.6 4.67676C6.64522 4.67676 5.72955 5.05604 5.05442 5.73117C4.37928 6.4063 4 7.32198 4 8.27676V17.0768C4 19.0668 5.61 20.6768 7.6 20.6768H16.4C17.3548 20.6768 18.2705 20.2975 18.9456 19.6223C19.6207 18.9472 20 18.0315 20 17.0768V8.27676C20 6.28676 18.39 4.67676 16.4 4.67676H7.6ZM17.25 6.17676C17.5815 6.17676 17.8995 6.30845 18.1339 6.54287C18.3683 6.77729 18.5 7.09524 18.5 7.42676C18.5 7.75828 18.3683 8.07622 18.1339 8.31064C17.8995 8.54506 17.5815 8.67676 17.25 8.67676C16.9185 8.67676 16.6005 8.54506 16.3661 8.31064C16.1317 8.07622 16 7.75828 16 7.42676C16 7.09524 16.1317 6.77729 16.3661 6.54287C16.6005 6.30845 16.9185 6.17676 17.25 6.17676ZM12 7.67676C13.3261 7.67676 14.5979 8.20354 15.5355 9.14122C16.4732 10.0789 17 11.3507 17 12.6768C17 14.0028 16.4732 15.2746 15.5355 16.2123C14.5979 17.15 13.3261 17.6768 12 17.6768C10.6739 17.6768 9.40215 17.15 8.46447 16.2123C7.52678 15.2746 7 14.0028 7 12.6768C7 11.3507 7.52678 10.0789 8.46447 9.14122C9.40215 8.20354 10.6739 7.67676 12 7.67676ZM12 9.67676C11.2044 9.67676 10.4413 9.99283 9.87868 10.5554C9.31607 11.118 9 11.8811 9 12.6768C9 13.4724 9.31607 14.2355 9.87868 14.7981C10.4413 15.3607 11.2044 15.6768 12 15.6768C12.7956 15.6768 13.5587 15.3607 14.1213 14.7981C14.6839 14.2355 15 13.4724 15 12.6768C15 11.8811 14.6839 11.118 14.1213 10.5554C13.5587 9.99283 12.7956 9.67676 12 9.67676Z" fill="white"/>
</svg>
