<svg width="39" height="38" viewBox="0 0 39 38" fill="none" xmlns="http://www.w3.org/2000/svg">
<path d="M22.9012 28.0862C19.0223 27.5426 15.5094 25.7547 12.7388 22.7855C10.0623 19.9208 8.09673 16.366 6.50755 12.5604C5.27385 9.60158 9.74864 7.18645 11.1705 9.36112C13.9725 13.6477 13.983 14.735 16.4085 17.3279C19.1164 20.2344 21.5838 22.2314 25.149 22.6914C27.4701 22.9841 29.8538 22.8273 32.0599 22.2836C36.1374 21.2904 38.9602 17.5893 38.9602 13.4072V6.78916C38.9602 3.25533 36.0851 0.390625 32.5408 0.390625H7.33351C3.78922 0.40108 0.914062 3.26578 0.914062 6.79961V31.5782C0.914062 35.1121 3.78922 37.9768 7.33351 37.9768H32.5513C36.0955 37.9768 38.9707 35.1121 38.9707 31.5782V22.2732C34.7364 26.863 28.8501 28.9226 22.9012 28.0862Z" fill="#FF4E00"/>
<path d="M22.9012 28.0862C19.0223 27.5426 15.5094 25.7547 12.7388 22.7855C10.0623 19.9208 8.09673 16.366 6.50755 12.5604C5.27385 9.60158 9.74864 7.18645 11.1705 9.36112C13.9725 13.6477 13.983 14.735 16.4085 17.3279C19.1164 20.2344 21.5838 22.2314 25.149 22.6914C27.4701 22.9841 29.8538 22.8273 32.0599 22.2836C36.1374 21.2904 38.9602 17.5893 38.9602 13.4072V6.78916C38.9602 3.25533 36.0851 0.390625 32.5408 0.390625H7.33351C3.78922 0.40108 0.914062 3.26578 0.914062 6.79961V31.5782C0.914062 35.1121 3.78922 37.9768 7.33351 37.9768H32.5513C36.0955 37.9768 38.9707 35.1121 38.9707 31.5782V22.2732C34.7364 26.863 28.8501 28.9226 22.9012 28.0862Z" fill="#F05223"/>
</svg>
